<?xml version="1.0" encoding="UTF-8" standalone="no"?>
<!DOCTYPE svg PUBLIC "-//W3C//DTD SVG 1.1//EN" "http://www.w3.org/Graphics/SVG/1.1/DTD/svg11.dtd">
<!-- Created with Vectornator (http://vectornator.io/) -->
<svg height="100%" stroke-miterlimit="10" style="fill-rule:nonzero;clip-rule:evenodd;stroke-linecap:round;stroke-linejoin:round;" version="1.1" viewBox="0 0 101 101" width="100%" xml:space="preserve" xmlns="http://www.w3.org/2000/svg" xmlns:vectornator="http://vectornator.io" xmlns:xlink="http://www.w3.org/1999/xlink">
<defs/>
<g id="Untitled" vectornator:layerName="Untitled">
<path d="M22.9696 5L78.0304 5C87.9547 5 96 13.0549 96 22.9912L96 78.0088C96 87.9451 87.9547 96 78.0304 96L22.9696 96C13.0453 96 5 87.9451 5 78.0088L5 22.9912C5 13.0549 13.0453 5 22.9696 5Z" fill="#000000" fill-rule="nonzero" opacity="1" stroke="none"/>
<path d="M16 43.3333L16 56.6666" fill="none" opacity="1" stroke="#ffffff" stroke-linecap="round" stroke-linejoin="round" stroke-width="4.5" vectornator:layerName="path"/>
<path d="M27.6665 36.6666L27.6665 63.3333" fill="none" opacity="1" stroke="#ffffff" stroke-linecap="round" stroke-linejoin="round" stroke-width="4.5" vectornator:layerName="path"/>
<path d="M39.3334 20L39.3334 80" fill="none" opacity="1" stroke="#ffffff" stroke-linecap="round" stroke-linejoin="round" stroke-width="4.5" vectornator:layerName="path"/>
<path d="M51 43.3333L51 56.6666" fill="none" opacity="1" stroke="#ffffff" stroke-linecap="round" stroke-linejoin="round" stroke-width="4.5" vectornator:layerName="path"/>
<path d="M62.6665 30L62.6665 70" fill="none" opacity="1" stroke="#ffffff" stroke-linecap="round" stroke-linejoin="round" stroke-width="4.5" vectornator:layerName="path"/>
<path d="M74.3334 20L74.3334 80" fill="none" opacity="1" stroke="#ffffff" stroke-linecap="round" stroke-linejoin="round" stroke-width="4.5" vectornator:layerName="path"/>
<path d="M86 43.3333L86 56.6666" fill="none" opacity="1" stroke="#ffffff" stroke-linecap="round" stroke-linejoin="round" stroke-width="4.5" vectornator:layerName="path"/>
</g>
</svg>
